<svg xmlns="http://www.w3.org/2000/svg" width="72" height="72"><path d="M67.707 8.965a4.938 4.938 0 00-4.672-4.672c-5.094-.277-15.062 0-24.597 4.922-4.86 2.52-9.997 6.777-14.102 11.7l-.148.183-9.31.718a4.903 4.903 0 00-3.741 2.204l-6.352 9.597a3.409 3.409 0 00-.273 3.258 3.4 3.4 0 002.59 1.984l7.84 1.215c-.028.153-.06.305-.083.457a4.933 4.933 0 001.391 4.29L27.18 55.75a4.948 4.948 0 004.297 1.387l.457-.082 1.214 7.843a3.398 3.398 0 005.239 2.317l9.605-6.352a4.903 4.903 0 002.203-3.742l.723-9.309.18-.148c4.918-4.105 9.18-9.242 11.699-14.102C67.727 24.02 68 14.06 67.719 8.965zM45.926 57.758l-9.188 6.074-1.183-7.645A41.794 41.794 0 0046.94 50.77l-.472 6.062a1.196 1.196 0 01-.54.926zm-16.121-4.64L18.883 42.194a1.205 1.205 0 01-.344-1.05 31.852 31.852 0 011.453-5.532l16.39 16.39a32.174 32.174 0 01-5.527 1.458 1.205 1.205 0 01-1.05-.344zM15.168 25.522l6.07-.468a41.77 41.77 0 00-5.418 11.383l-7.644-1.18 6.074-9.192c.207-.312.543-.511.918-.543zM48.707 44.8a42.786 42.786 0 01-8.621 5.64L21.559 31.914a43.52 43.52 0 015.64-8.621c3.797-4.55 8.516-8.477 12.957-10.77C48.906 8 58.125 7.753 62.84 8.012a1.224 1.224 0 011.152 1.152c.258 4.719.012 13.938-4.512 22.68-2.292 4.437-6.218 9.16-10.77 12.96zm0 0" fill="#2f2b65"/><path d="M47.758 33.547a9.299 9.299 0 009.113-7.496 9.291 9.291 0 00-5.57-10.399 9.304 9.304 0 00-11.29 3.43 9.3 9.3 0 001.165 11.742 9.287 9.287 0 006.582 2.723zm-3.95-13.254a5.579 5.579 0 112.856 9.418 5.58 5.58 0 01-2.855-9.418zM6.121 56.602c.492 0 .965-.192 1.316-.54l6.079-6.082a1.864 1.864 0 10-2.633-2.64L4.8 53.422a1.867 1.867 0 00-.403 2.031c.29.695.97 1.149 1.723 1.149zm12.957-3.68a1.855 1.855 0 00-2.633 0l-11.68 11.68a1.863 1.863 0 002.633 2.632l11.68-11.687a1.853 1.853 0 000-2.625zm2.945 5.562l-6.078 6.082a1.863 1.863 0 002.633 2.633l6.082-6.082a1.863 1.863 0 00-2.633-2.633zm0 0" fill="#dc619d"/></svg>